# Blender v2.78 (sub 0) OBJ File: 'tree_polygoogle.blend'
# www.blender.org
mtllib tree_polygoogle.mtl
o Cylinder.002
v 0.000000 0.010302 -0.883906
v 0.000000 0.056920 -0.883906
v 0.338256 0.010302 -0.816623
v 0.338256 0.056920 -0.816623
v 0.625016 0.010302 -0.625016
v 0.625016 0.056920 -0.625016
v 0.816623 0.010302 -0.338256
v 0.816623 0.056920 -0.338256
v 0.883906 0.010302 0.000000
v 0.883906 0.056920 0.000000
v 0.816623 0.010302 0.338256
v 0.816623 0.056920 0.338256
v 0.625016 0.010302 0.625016
v 0.625016 0.056920 0.625016
v 0.338256 0.010302 0.816623
v 0.338256 0.056920 0.816623
v 0.000000 0.010302 0.883906
v 0.000000 0.056920 0.883906
v -0.338256 0.010302 0.816623
v -0.338256 0.056920 0.816623
v -0.625016 0.010302 0.625016
v -0.625016 0.056920 0.625016
v -0.816623 0.010302 0.338256
v -0.816623 0.056920 0.338256
v -0.883906 0.010302 -0.000000
v -0.883906 0.056920 -0.000000
v -0.816623 0.010302 -0.338256
v -0.816623 0.056920 -0.338256
v -0.625016 0.010302 -0.625016
v -0.625016 0.056920 -0.625016
v -0.338256 0.010302 -0.816623
v -0.338256 0.056920 -0.816623
vn 0.1951 0.0000 -0.9808
vn 0.5556 0.0000 -0.8315
vn 0.8315 0.0000 -0.5556
vn 0.9808 0.0000 -0.1951
vn 0.9808 0.0000 0.1951
vn 0.8315 0.0000 0.5556
vn 0.5556 0.0000 0.8315
vn 0.1951 0.0000 0.9808
vn -0.1951 0.0000 0.9808
vn -0.5556 0.0000 0.8315
vn -0.8315 0.0000 0.5556
vn -0.9808 0.0000 0.1951
vn -0.9808 0.0000 -0.1951
vn -0.8315 0.0000 -0.5556
vn 0.0000 1.0000 0.0000
vn -0.5556 0.0000 -0.8315
vn -0.1951 0.0000 -0.9808
vn 0.0000 -1.0000 0.0000
usemtl floor
s off
f 1//1 2//1 4//1 3//1
f 3//2 4//2 6//2 5//2
f 5//3 6//3 8//3 7//3
f 7//4 8//4 10//4 9//4
f 9//5 10//5 12//5 11//5
f 11//6 12//6 14//6 13//6
f 13//7 14//7 16//7 15//7
f 15//8 16//8 18//8 17//8
f 17//9 18//9 20//9 19//9
f 19//10 20//10 22//10 21//10
f 21//11 22//11 24//11 23//11
f 23//12 24//12 26//12 25//12
f 25//13 26//13 28//13 27//13
f 27//14 28//14 30//14 29//14
f 4//15 2//15 32//15 30//15 28//15 26//15 24//15 22//15 20//15 18//15 16//15 14//15 12//15 10//15 8//15 6//15
f 29//16 30//16 32//16 31//16
f 31//17 32//17 2//17 1//17
f 1//18 3//18 5//18 7//18 9//18 11//18 13//18 15//18 17//18 19//18 21//18 23//18 25//18 27//18 29//18 31//18
o Cylinder
v -0.000000 2.556148 -0.412350
v 0.157799 2.556148 -0.380962
v 0.291575 2.556148 -0.291575
v 0.380962 2.556148 -0.157799
v 0.412350 2.556148 0.000000
v 0.380962 2.556148 0.157800
v 0.291575 2.556148 0.291575
v 0.157800 2.556148 0.380962
v 0.000000 2.556148 0.412350
v -0.157799 2.556148 0.380962
v -0.291575 2.556148 0.291576
v -0.380962 2.556148 0.157800
v -0.412350 2.556148 -0.000000
v -0.380962 2.556148 -0.157800
v -0.291575 2.556148 -0.291576
v -0.157799 2.556148 -0.380962
v -0.000000 0.438249 -0.332748
v 0.000000 0.861829 -0.280304
v 0.000000 1.708988 -0.268899
v -0.000000 2.132568 -0.306209
v 0.117181 2.132568 -0.282900
v 0.102903 1.708988 -0.248430
v 0.107268 0.861829 -0.258967
v 0.127337 0.438249 -0.307419
v 0.216522 2.132568 -0.216522
v 0.190140 1.708988 -0.190140
v 0.198205 0.861829 -0.198205
v 0.235288 0.438249 -0.235288
v 0.282900 2.132568 -0.117181
v 0.248430 1.708988 -0.102903
v 0.258967 0.861829 -0.107268
v 0.307419 0.438249 -0.127337
v 0.306209 2.132568 0.000000
v 0.268899 1.708988 0.000000
v 0.280304 0.861829 0.000000
v 0.332748 0.438249 0.000000
v 0.282900 2.132568 0.117181
v 0.248430 1.708988 0.102903
v 0.258967 0.861829 0.107268
v 0.307419 0.438249 0.127337
v 0.216522 2.132568 0.216522
v 0.190140 1.708988 0.190140
v 0.198205 0.861829 0.198205
v 0.235288 0.438249 0.235288
v 0.117181 2.132568 0.282900
v 0.102903 1.708988 0.248430
v 0.107268 0.861829 0.258967
v 0.127337 0.438249 0.307419
v 0.000000 2.132568 0.306209
v 0.000000 1.708988 0.268899
v 0.000000 0.861829 0.280304
v 0.000000 0.438249 0.332748
v -0.117181 2.132568 0.282900
v -0.102903 1.708988 0.248430
v -0.107268 0.861829 0.258967
v -0.127337 0.438249 0.307419
v -0.216522 2.132568 0.216523
v -0.190140 1.708988 0.190140
v -0.198205 0.861829 0.198205
v -0.235288 0.438249 0.235288
v -0.282900 2.132568 0.117181
v -0.248430 1.708988 0.102903
v -0.258967 0.861829 0.107268
v -0.307419 0.438249 0.127337
v -0.306209 2.132568 -0.000000
v -0.268899 1.708988 0.000000
v -0.280304 0.861829 0.000000
v -0.332748 0.438249 -0.000000
v -0.282900 2.132568 -0.117181
v -0.248430 1.708988 -0.102903
v -0.258967 0.861829 -0.107268
v -0.307419 0.438249 -0.127337
v -0.216522 2.132568 -0.216523
v -0.190140 1.708988 -0.190140
v -0.198205 0.861829 -0.198205
v -0.235288 0.438249 -0.235288
v -0.117181 2.132568 -0.282900
v -0.102903 1.708988 -0.248430
v -0.107268 0.861829 -0.258967
v -0.127337 0.438249 -0.307419
v -0.000000 1.404371 -0.253705
v -0.000000 1.173287 -0.256382
v -0.000000 1.287413 -0.252031
v 0.098113 1.173287 -0.236866
v 0.097089 1.404371 -0.234392
v 0.096448 1.287412 -0.232846
v 0.181290 1.173287 -0.181290
v 0.179396 1.404371 -0.179396
v 0.178213 1.287412 -0.178213
v 0.236866 1.173287 -0.098113
v 0.234392 1.404371 -0.097089
v 0.232846 1.287412 -0.096448
v 0.256382 1.173287 0.000000
v 0.253705 1.404371 0.000000
v 0.252031 1.287412 0.000000
v 0.236866 1.173287 0.098113
v 0.234392 1.404371 0.097089
v 0.232846 1.287412 0.096448
v 0.181290 1.173287 0.181290
v 0.179396 1.404371 0.179396
v 0.178213 1.287412 0.178213
v 0.098113 1.173287 0.236866
v 0.097089 1.404371 0.234392
v 0.096448 1.287412 0.232846
v 0.000000 1.173287 0.256382
v 0.000000 1.404371 0.253705
v 0.000000 1.287412 0.252031
v -0.098113 1.173287 0.236866
v -0.097088 1.404371 0.234392
v -0.096448 1.287412 0.232846
v -0.181290 1.173287 0.181290
v -0.179396 1.404371 0.179396
v -0.178213 1.287412 0.178213
v -0.236866 1.173287 0.098113
v -0.234392 1.404371 0.097089
v -0.232846 1.287412 0.096448
v -0.256382 1.173287 -0.000000
v -0.253705 1.404371 -0.000000
v -0.252031 1.287412 -0.000000
v -0.236866 1.173287 -0.098113
v -0.234392 1.404371 -0.097089
v -0.232846 1.287412 -0.096448
v -0.181290 1.173287 -0.181290
v -0.179396 1.404371 -0.179396
v -0.178213 1.287412 -0.178213
v -0.098113 1.173287 -0.236866
v -0.097088 1.404371 -0.234393
v -0.096448 1.287412 -0.232846
v -0.000000 0.014669 -0.425720
v -0.000000 0.131691 -0.430014
v -0.000000 0.048944 -0.444136
v 0.162916 0.014669 -0.393314
v 0.164559 0.131691 -0.397282
v 0.169964 0.048944 -0.410328
v 0.301029 0.014669 -0.301029
v 0.304066 0.131691 -0.304066
v 0.314052 0.048944 -0.314052
v 0.393314 0.014669 -0.162916
v 0.397281 0.131691 -0.164559
v 0.410328 0.048944 -0.169964
v 0.425720 0.014669 0.000000
v 0.430014 0.131691 0.000000
v 0.444136 0.048944 0.000000
v 0.393314 0.014669 0.162916
v 0.397282 0.131691 0.164559
v 0.410328 0.048944 0.169964
v 0.301029 0.014669 0.301029
v 0.304066 0.131691 0.304066
v 0.314052 0.048944 0.314052
v 0.162916 0.014669 0.393314
v 0.164559 0.131691 0.397282
v 0.169964 0.048944 0.410328
v 0.000000 0.014669 0.425720
v 0.000000 0.131691 0.430014
v 0.000000 0.048944 0.444136
v -0.162916 0.014669 0.393314
v -0.164559 0.131691 0.397282
v -0.169963 0.048944 0.410328
v -0.301029 0.014669 0.301029
v -0.304066 0.131691 0.304066
v -0.314052 0.048944 0.314052
v -0.393314 0.014669 0.162916
v -0.397282 0.131691 0.164559
v -0.410328 0.048944 0.169964
v -0.425720 0.014669 -0.000000
v -0.430014 0.131691 -0.000000
v -0.444136 0.048944 -0.000000
v -0.393314 0.014669 -0.162916
v -0.397282 0.131691 -0.164560
v -0.410328 0.048944 -0.169964
v -0.301029 0.014669 -0.301029
v -0.304066 0.131691 -0.304066
v -0.314052 0.048944 -0.314052
v -0.162916 0.014669 -0.393314
v -0.164559 0.131691 -0.397282
v -0.169963 0.048944 -0.410328
v 1.000000 2.402323 -0.755296
v 0.755296 2.157619 -0.755296
v 0.755296 2.402323 -1.000000
v 0.928328 2.229291 -0.755296
v 0.896576 2.261043 -0.896576
v 0.755296 2.229291 -0.928328
v 0.928328 2.402323 -0.928328
v 1.000000 2.402323 0.755296
v 0.755296 2.402323 1.000000
v 0.755296 2.157619 0.755296
v 0.928328 2.402323 0.928328
v 0.896576 2.261043 0.896576
v 0.755296 2.229291 0.928328
v 0.928328 2.229291 0.755296
v -0.755296 2.402323 1.000000
v -1.000000 2.402323 0.755296
v -0.755296 2.157619 0.755296
v -0.928328 2.402323 0.928328
v -0.896576 2.261043 0.896576
v -0.928328 2.229291 0.755296
v -0.755296 2.229291 0.928328
v -0.755296 2.402323 -1.000000
v -0.755296 2.157619 -0.755296
v -1.000000 2.402323 -0.755296
v -0.755296 2.229291 -0.928328
v -0.896576 2.261043 -0.896576
v -0.928328 2.229291 -0.755296
v -0.928328 2.402323 -0.928328
v 0.755296 3.912914 -1.000000
v 0.755296 4.157619 -0.755295
v 1.000000 3.912914 -0.755295
v 0.755296 4.085947 -0.928327
v 0.896576 4.054194 -0.896575
v 0.928328 4.085947 -0.755295
v 0.928328 3.912914 -0.928327
v 0.755295 3.912914 1.000000
v 1.000000 3.912914 0.755296
v 0.755295 4.157619 0.755296
v 0.928327 3.912914 0.928328
v 0.896575 4.054194 0.896576
v 0.928327 4.085947 0.755296
v 0.755295 4.085947 0.928328
v -1.000000 3.912914 0.755295
v -0.755296 3.912914 1.000000
v -0.755296 4.157619 0.755296
v -0.928328 3.912914 0.928328
v -0.896576 4.054194 0.896576
v -0.755296 4.085947 0.928328
v -0.928328 4.085947 0.755296
v -1.000000 3.912914 -0.755296
v -0.755296 4.157619 -0.755296
v -0.755296 3.912914 -1.000000
v -0.928328 4.085947 -0.755296
v -0.896576 4.054194 -0.896576
v -0.755296 4.085947 -0.928328
v -0.928328 3.912914 -0.928328
v 2.056490 1.800542 -0.718400
v 1.823740 1.567792 -0.718400
v 1.823740 1.800542 -0.951150
v 1.988319 1.635963 -0.718400
v 1.958118 1.666163 -0.852778
v 1.823740 1.635963 -0.882979
v 1.988319 1.800542 -0.882979
v 2.056490 1.800542 0.718400
v 1.823740 1.800542 0.951150
v 1.823740 1.567792 0.718400
v 1.988319 1.800542 0.882979
v 1.958118 1.666163 0.852778
v 1.823740 1.635963 0.882979
v 1.988319 1.635963 0.718400
v 0.386940 1.800542 0.951150
v 0.154190 1.800542 0.718400
v 0.386940 1.567792 0.718400
v 0.222361 1.800542 0.882979
v 0.252562 1.666163 0.852778
v 0.222361 1.635963 0.718400
v 0.386940 1.635963 0.882979
v 0.386941 1.800542 -0.951151
v 0.386941 1.567792 -0.718400
v 0.154190 1.800542 -0.718400
v 0.386941 1.635963 -0.882979
v 0.252562 1.666163 -0.852779
v 0.222361 1.635963 -0.718400
v 0.222361 1.800542 -0.882979
v 1.823740 3.237342 -0.951150
v 1.823740 3.470092 -0.718399
v 2.056491 3.237342 -0.718399
v 1.823740 3.401921 -0.882979
v 1.958119 3.371720 -0.852778
v 1.988320 3.401921 -0.718399
v 1.988320 3.237342 -0.882979
v 1.823739 3.237342 0.951151
v 2.056490 3.237342 0.718400
v 1.823739 3.470092 0.718400
v 1.988319 3.237342 0.882980
v 1.958118 3.371720 0.852779
v 1.988319 3.401921 0.718400
v 1.823739 3.401921 0.882980
v 0.154189 3.237342 0.718399
v 0.386940 3.237342 0.951150
v 0.386940 3.470092 0.718400
v 0.222361 3.237342 0.882979
v 0.252562 3.371720 0.852778
v 0.386940 3.401921 0.882979
v 0.222361 3.401921 0.718400
v 0.154190 3.237342 -0.718400
v 0.386940 3.470092 -0.718400
v 0.386940 3.237342 -0.951150
v 0.222361 3.401921 -0.718400
v 0.252562 3.371720 -0.852778
v 0.386940 3.401921 -0.882979
v 0.222361 3.237342 -0.882979
v -0.120837 1.877780 -0.258434
v -0.328564 1.670054 -0.258434
v -0.328564 1.877780 -0.466160
v -0.181679 1.730896 -0.258434
v -0.208633 1.757849 -0.378365
v -0.328564 1.730896 -0.405319
v -0.181679 1.877780 -0.405319
v -0.120837 1.877780 1.023889
v -0.328564 1.877780 1.231616
v -0.328564 1.670054 1.023889
v -0.181679 1.877780 1.170774
v -0.208633 1.757849 1.143820
v -0.328564 1.730896 1.170774
v -0.181679 1.730896 1.023889
v -1.610887 1.877780 1.231615
v -1.818613 1.877780 1.023889
v -1.610887 1.670054 1.023889
v -1.757772 1.877780 1.170774
v -1.730818 1.757849 1.143820
v -1.757772 1.730896 1.023889
v -1.610887 1.730896 1.170774
v -1.610887 1.877780 -0.466161
v -1.610887 1.670054 -0.258434
v -1.818613 1.877780 -0.258434
v -1.610887 1.730896 -0.405319
v -1.730818 1.757849 -0.378365
v -1.757771 1.730896 -0.258434
v -1.757771 1.877780 -0.405319
v -0.328563 3.160103 -0.466160
v -0.328563 3.367830 -0.258434
v -0.120837 3.160103 -0.258434
v -0.328563 3.306988 -0.405318
v -0.208632 3.280034 -0.378365
v -0.181679 3.306988 -0.258434
v -0.181678 3.160103 -0.405318
v -0.328564 3.160103 1.231616
v -0.120838 3.160103 1.023890
v -0.328564 3.367830 1.023890
v -0.181679 3.160103 1.170774
v -0.208633 3.280034 1.143820
v -0.181679 3.306988 1.023890
v -0.328564 3.306988 1.170774
v -1.818614 3.160103 1.023889
v -1.610887 3.160103 1.231615
v -1.610887 3.367830 1.023889
v -1.757772 3.160103 1.170774
v -1.730818 3.280034 1.143820
v -1.610887 3.306988 1.170774
v -1.757772 3.306988 1.023889
v -1.818613 3.160103 -0.258434
v -1.610887 3.367830 -0.258434
v -1.610887 3.160103 -0.466160
v -1.757771 3.306988 -0.258434
v -1.730818 3.280034 -0.378365
v -1.610887 3.306988 -0.405319
v -1.757771 3.160103 -0.405319
v -0.363716 1.779570 -1.025779
v -0.512009 1.631277 -1.025779
v -0.512009 1.779570 -1.174072
v -0.407150 1.674712 -1.025779
v -0.426392 1.693953 -1.111396
v -0.512009 1.674712 -1.130638
v -0.407150 1.779571 -1.130638
v -0.363716 1.779570 -0.110346
v -0.512009 1.779570 0.037947
v -0.512009 1.631277 -0.110346
v -0.407150 1.779571 -0.005487
v -0.426392 1.693953 -0.024729
v -0.512009 1.674712 -0.005487
v -0.407150 1.674712 -0.110346
v -1.427442 1.779570 0.037947
v -1.575735 1.779570 -0.110346
v -1.427442 1.631277 -0.110346
v -1.532301 1.779571 -0.005487
v -1.513059 1.693953 -0.024729
v -1.532301 1.674712 -0.110346
v -1.427442 1.674712 -0.005487
v -1.427442 1.779570 -1.174072
v -1.427442 1.631277 -1.025779
v -1.575735 1.779570 -1.025779
v -1.427442 1.674712 -1.130638
v -1.513059 1.693953 -1.111396
v -1.532301 1.674712 -1.025779
v -1.532301 1.779571 -1.130638
v -0.512008 2.695004 -1.174072
v -0.512008 2.843297 -1.025779
v -0.363715 2.695004 -1.025779
v -0.512008 2.799863 -1.130638
v -0.426391 2.780621 -1.111396
v -0.407149 2.799863 -1.025779
v -0.407149 2.695004 -1.130638
v -0.512009 2.695004 0.037948
v -0.363716 2.695004 -0.110345
v -0.512009 2.843297 -0.110345
v -0.407150 2.695004 -0.005486
v -0.426392 2.780621 -0.024728
v -0.407150 2.799863 -0.110345
v -0.512009 2.799863 -0.005486
v -1.575735 2.695004 -0.110346
v -1.427442 2.695004 0.037947
v -1.427442 2.843297 -0.110346
v -1.532301 2.695004 -0.005487
v -1.513059 2.780621 -0.024729
v -1.427442 2.799863 -0.005487
v -1.532301 2.799863 -0.110346
v -1.575735 2.695004 -1.025779
v -1.427442 2.843297 -1.025779
v -1.427442 2.695004 -1.174072
v -1.532301 2.799863 -1.025779
v -1.513059 2.780621 -1.111396
v -1.427442 2.799863 -1.130638
v -1.532301 2.695004 -1.130638
v 1.519824 2.701640 -0.985039
v 1.384729 2.566546 -0.985039
v 1.384730 2.701640 -1.120133
v 1.480255 2.606114 -0.985039
v 1.462726 2.623644 -1.063036
v 1.384729 2.606114 -1.080565
v 1.480255 2.701640 -1.080565
v 1.519824 2.701640 -0.151085
v 1.384729 2.701640 -0.015991
v 1.384729 2.566546 -0.151085
v 1.480255 2.701640 -0.055560
v 1.462726 2.623644 -0.073089
v 1.384729 2.606114 -0.055560
v 1.480255 2.606114 -0.151085
v 0.550775 2.701640 -0.015991
v 0.415681 2.701640 -0.151085
v 0.550776 2.566546 -0.151085
v 0.455249 2.701640 -0.055560
v 0.472779 2.623644 -0.073089
v 0.455249 2.606114 -0.151085
v 0.550776 2.606114 -0.055560
v 0.550776 2.701640 -1.120134
v 0.550776 2.566546 -0.985039
v 0.415682 2.701640 -0.985039
v 0.550776 2.606114 -1.080565
v 0.472779 2.623644 -1.063036
v 0.455250 2.606114 -0.985039
v 0.455250 2.701640 -1.080565
v 1.384730 3.535594 -1.120133
v 1.384730 3.670688 -0.985039
v 1.519824 3.535594 -0.985039
v 1.384730 3.631120 -1.080565
v 1.462726 3.613591 -1.063036
v 1.480256 3.631120 -0.985039
v 1.480256 3.535594 -1.080565
v 1.384729 3.535594 -0.015991
v 1.519823 3.535594 -0.151085
v 1.384729 3.670688 -0.151085
v 1.480255 3.535594 -0.055559
v 1.462726 3.613591 -0.073089
v 1.480255 3.631120 -0.151085
v 1.384729 3.631120 -0.055559
v 0.415681 3.535594 -0.151086
v 0.550775 3.535594 -0.015991
v 0.550775 3.670688 -0.151086
v 0.455249 3.535594 -0.055560
v 0.472779 3.613591 -0.073089
v 0.550775 3.631120 -0.055560
v 0.455249 3.631120 -0.151086
v 0.415681 3.535594 -0.985039
v 0.550776 3.670688 -0.985039
v 0.550776 3.535594 -1.120133
v 0.455250 3.631120 -0.985039
v 0.472779 3.613591 -1.063036
v 0.550776 3.631120 -1.080565
v 0.455250 3.535594 -1.080565
vn 0.0000 0.0000 -1.0000
vn -0.0000 -0.0000 1.0000
vn -1.0000 -0.0000 -0.0000
vn 0.0000 1.0000 0.0000
vn 1.0000 -0.0000 0.0000
vn 0.8881 -0.3251 -0.3251
vn 0.3251 -0.8881 -0.3251
vn 0.3251 -0.3251 -0.8881
vn 0.8881 -0.3251 0.3251
vn 0.3251 -0.3251 0.8881
vn 0.3251 -0.8881 0.3251
vn -0.3251 -0.3251 0.8881
vn -0.8881 -0.3251 0.3251
vn -0.3251 -0.8881 0.3251
vn -0.3251 -0.3251 -0.8881
vn -0.3251 -0.8881 -0.3251
vn -0.8881 -0.3251 -0.3251
vn 0.3251 0.3251 -0.8881
vn 0.3251 0.8881 -0.3251
vn 0.8881 0.3251 -0.3251
vn 0.3251 0.3251 0.8881
vn 0.8881 0.3251 0.3251
vn 0.3251 0.8881 0.3251
vn -0.8881 0.3251 0.3251
vn -0.3251 0.3251 0.8881
vn -0.3251 0.8881 0.3251
vn -0.8881 0.3251 -0.3251
vn -0.3251 0.8881 -0.3251
vn -0.3251 0.3251 -0.8881
vn 0.9239 -0.3827 -0.0000
vn 0.3827 -0.9239 0.0000
vn 0.0000 -0.9239 -0.3827
vn 0.0000 -0.3827 -0.9239
vn 0.3827 0.0000 -0.9239
vn 0.9239 -0.0000 -0.3827
vn -0.0000 -0.3827 0.9239
vn -0.0000 -0.9239 0.3827
vn 0.9239 0.0000 0.3827
vn 0.3827 -0.0000 0.9239
vn -0.9239 -0.3827 -0.0000
vn -0.3827 -0.9239 -0.0000
vn -0.3827 -0.0000 0.9239
vn -0.9239 -0.0000 0.3827
vn -0.9239 -0.0000 -0.3827
vn -0.3827 0.0000 -0.9239
vn 0.3827 0.9239 0.0000
vn 0.9239 0.3827 0.0000
vn 0.0000 0.3827 -0.9239
vn 0.0000 0.9239 -0.3827
vn -0.0000 0.9239 0.3827
vn -0.0000 0.3827 0.9239
vn -0.3827 0.9239 -0.0000
vn -0.9239 0.3827 -0.0000
vn 0.0000 -1.0000 0.0000
vn 0.1895 -0.2387 -0.9524
vn 0.5395 -0.2387 -0.8074
vn 0.8074 -0.2387 -0.5395
vn 0.9524 -0.2387 -0.1895
vn 0.9524 -0.2387 0.1895
vn 0.8074 -0.2387 0.5395
vn 0.5395 -0.2387 0.8074
vn 0.1895 -0.2387 0.9524
vn -0.1895 -0.2387 0.9524
vn -0.5395 -0.2387 0.8074
vn -0.8074 -0.2387 0.5395
vn -0.9524 -0.2387 0.1895
vn -0.9524 -0.2387 -0.1895
vn -0.8074 -0.2387 -0.5395
vn -0.5395 -0.2387 -0.8074
vn -0.1895 -0.2387 -0.9524
vn -0.1863 0.2971 -0.9365
vn 0.1863 0.2971 -0.9365
vn -0.1937 0.1205 -0.9736
vn 0.1949 -0.0489 -0.9796
vn 0.1945 0.0751 -0.9780
vn -0.1944 -0.0861 -0.9771
vn -0.5515 0.1205 -0.8254
vn -0.5540 0.0751 -0.8291
vn -0.5535 -0.0861 -0.8284
vn -0.5305 0.2971 -0.7939
vn -0.8254 0.1205 -0.5515
vn -0.5549 -0.0489 -0.8305
vn -0.8291 0.0751 -0.5540
vn -0.8284 -0.0861 -0.5535
vn -0.7939 0.2971 -0.5305
vn -0.9736 0.1205 -0.1937
vn -0.8305 -0.0489 -0.5549
vn -0.9780 0.0751 -0.1945
vn -0.9771 -0.0861 -0.1944
vn -0.9365 0.2971 -0.1863
vn -0.9736 0.1205 0.1937
vn -0.9796 -0.0489 -0.1949
vn -0.9780 0.0751 0.1945
vn -0.9771 -0.0861 0.1944
vn -0.9365 0.2971 0.1863
vn -0.8254 0.1205 0.5515
vn -0.9796 -0.0489 0.1949
vn -0.8291 0.0751 0.5540
vn -0.8284 -0.0861 0.5535
vn -0.7939 0.2971 0.5305
vn -0.5515 0.1205 0.8254
vn -0.8305 -0.0489 0.5549
vn -0.5540 0.0751 0.8291
vn -0.5535 -0.0861 0.8284
vn -0.5305 0.2971 0.7939
vn -0.1937 0.1205 0.9736
vn -0.5549 -0.0489 0.8305
vn -0.1945 0.0751 0.9780
vn -0.1944 -0.0861 0.9771
vn -0.1863 0.2971 0.9365
vn 0.1937 0.1205 0.9736
vn -0.1949 -0.0489 0.9796
vn 0.1945 0.0751 0.9780
vn 0.1944 -0.0861 0.9771
vn 0.1863 0.2971 0.9365
vn 0.5515 0.1205 0.8254
vn 0.1949 -0.0489 0.9796
vn 0.5540 0.0751 0.8291
vn 0.5535 -0.0861 0.8284
vn 0.5305 0.2971 0.7939
vn 0.8254 0.1205 0.5515
vn 0.5549 -0.0489 0.8305
vn 0.8291 0.0751 0.5540
vn 0.8284 -0.0861 0.5535
vn 0.7939 0.2971 0.5305
vn 0.9736 0.1205 0.1937
vn 0.8305 -0.0489 0.5549
vn 0.9780 0.0751 0.1945
vn 0.9771 -0.0861 0.1944
vn 0.9365 0.2971 0.1863
vn 0.9736 0.1205 -0.1937
vn 0.9796 -0.0489 0.1949
vn 0.9780 0.0751 -0.1945
vn 0.9771 -0.0861 -0.1944
vn 0.9365 0.2971 -0.1863
vn 0.8254 0.1205 -0.5515
vn 0.9796 -0.0489 -0.1949
vn 0.8291 0.0751 -0.5540
vn 0.8284 -0.0861 -0.5535
vn 0.7939 0.2971 -0.5305
vn 0.5515 0.1205 -0.8254
vn 0.8305 -0.0489 -0.5549
vn 0.5540 0.0751 -0.8291
vn 0.5535 -0.0861 -0.8284
vn 0.5305 0.2971 -0.7939
vn 0.1937 0.1205 -0.9736
vn 0.5549 -0.0489 -0.8305
vn -0.1949 -0.0489 -0.9796
vn 0.1944 -0.0861 -0.9771
vn -0.1951 -0.0140 -0.9807
vn -0.1950 0.0374 -0.9801
vn -0.5555 -0.0140 -0.8314
vn -0.5552 0.0374 -0.8309
vn -0.8314 -0.0140 -0.5555
vn -0.8309 0.0374 -0.5552
vn -0.9807 -0.0140 -0.1951
vn -0.9801 0.0374 -0.1950
vn -0.9807 -0.0140 0.1951
vn -0.9801 0.0374 0.1950
vn -0.8314 -0.0140 0.5555
vn -0.8309 0.0374 0.5552
vn -0.5555 -0.0140 0.8314
vn -0.5552 0.0374 0.8309
vn -0.1951 -0.0140 0.9807
vn -0.1950 0.0374 0.9801
vn 0.1951 -0.0140 0.9807
vn 0.1950 0.0374 0.9801
vn 0.5555 -0.0140 0.8314
vn 0.5552 0.0374 0.8309
vn 0.8314 -0.0140 0.5555
vn 0.8309 0.0374 0.5552
vn 0.9807 -0.0140 0.1951
vn 0.9801 0.0374 0.1950
vn 0.9807 -0.0140 -0.1951
vn 0.9801 0.0374 -0.1950
vn 0.8314 -0.0140 -0.5555
vn 0.8309 0.0374 -0.5552
vn 0.5555 -0.0140 -0.8314
vn 0.5552 0.0374 -0.8309
vn 0.1951 -0.0140 -0.9807
vn 0.1950 0.0374 -0.9801
vn -0.1945 0.0751 -0.9780
vn 0.1924 0.1651 -0.9673
vn 0.1726 -0.4662 -0.8677
vn 0.5479 0.1651 -0.8201
vn 0.4915 -0.4662 -0.7356
vn 0.8201 0.1651 -0.5479
vn 0.7356 -0.4662 -0.4915
vn 0.9673 0.1651 -0.1924
vn 0.8677 -0.4662 -0.1726
vn 0.9673 0.1651 0.1924
vn 0.8677 -0.4662 0.1726
vn 0.8201 0.1651 0.5479
vn 0.7356 -0.4662 0.4915
vn 0.5479 0.1651 0.8201
vn 0.4915 -0.4662 0.7356
vn 0.1924 0.1651 0.9673
vn 0.1726 -0.4662 0.8677
vn -0.1924 0.1651 0.9673
vn -0.1726 -0.4662 0.8677
vn -0.5479 0.1651 0.8201
vn -0.4915 -0.4662 0.7356
vn -0.8201 0.1651 0.5479
vn -0.7356 -0.4662 0.4915
vn -0.9673 0.1651 0.1924
vn -0.8677 -0.4662 0.1726
vn -0.9673 0.1651 -0.1924
vn -0.8677 -0.4662 -0.1726
vn -0.8201 0.1651 -0.5479
vn -0.7356 -0.4662 -0.4915
vn -0.5479 0.1651 -0.8201
vn -0.4915 -0.4662 -0.7356
vn -0.1924 0.1651 -0.9673
vn -0.1726 -0.4662 -0.8677
usemtl tree_leaf
s off
f 237//19 211//19 230//19 260//19
f 217//20 244//20 252//20 223//20
f 224//21 251//21 258//21 232//21
f 238//22 259//22 253//22 246//22
f 209//23 239//23 245//23 216//23
f 209//24 212//24 213//24 215//24
f 210//25 214//25 213//25 212//25
f 211//26 215//26 213//26 214//26
f 216//27 219//27 220//27 222//27
f 217//28 221//28 220//28 219//28
f 218//29 222//29 220//29 221//29
f 223//30 226//30 227//30 229//30
f 224//31 228//31 227//31 226//31
f 225//32 229//32 227//32 228//32
f 230//33 233//33 234//33 236//33
f 231//34 235//34 234//34 233//34
f 232//35 236//35 234//35 235//35
f 237//36 240//36 241//36 243//36
f 238//37 242//37 241//37 240//37
f 239//38 243//38 241//38 242//38
f 244//39 247//39 248//39 250//39
f 245//40 249//40 248//40 247//40
f 246//41 250//41 248//41 249//41
f 251//42 254//42 255//42 257//42
f 252//43 256//43 255//43 254//43
f 253//44 257//44 255//44 256//44
f 258//45 261//45 262//45 264//45
f 259//46 263//46 262//46 261//46
f 260//47 264//47 262//47 263//47
f 209//48 216//48 222//48 212//48
f 212//49 222//49 218//49 210//49
f 210//50 231//50 233//50 214//50
f 214//51 233//51 230//51 211//51
f 211//52 237//52 243//52 215//52
f 215//53 243//53 239//53 209//53
f 217//54 223//54 229//54 221//54
f 221//55 229//55 225//55 218//55
f 216//56 245//56 247//56 219//56
f 219//57 247//57 244//57 217//57
f 224//58 232//58 235//58 228//58
f 228//59 235//59 231//59 225//59
f 223//60 252//60 254//60 226//60
f 226//61 254//61 251//61 224//61
f 232//62 258//62 264//62 236//62
f 236//63 264//63 260//63 230//63
f 238//64 246//64 249//64 242//64
f 242//65 249//65 245//65 239//65
f 237//66 260//66 263//66 240//66
f 240//67 263//67 259//67 238//67
f 246//68 253//68 256//68 250//68
f 250//69 256//69 252//69 244//69
f 253//70 259//70 261//70 257//70
f 257//71 261//71 258//71 251//71
f 210//72 218//72 225//72 231//72
f 293//19 267//19 286//19 316//19
f 273//20 300//20 308//20 279//20
f 280//21 307//21 314//21 288//21
f 294//22 315//22 309//22 302//22
f 265//23 295//23 301//23 272//23
f 265//24 268//24 269//24 271//24
f 266//25 270//25 269//25 268//25
f 267//26 271//26 269//26 270//26
f 272//27 275//27 276//27 278//27
f 273//28 277//28 276//28 275//28
f 274//29 278//29 276//29 277//29
f 279//30 282//30 283//30 285//30
f 280//31 284//31 283//31 282//31
f 281//32 285//32 283//32 284//32
f 286//33 289//33 290//33 292//33
f 287//34 291//34 290//34 289//34
f 288//35 292//35 290//35 291//35
f 293//36 296//36 297//36 299//36
f 294//37 298//37 297//37 296//37
f 295//38 299//38 297//38 298//38
f 300//39 303//39 304//39 306//39
f 301//40 305//40 304//40 303//40
f 302//41 306//41 304//41 305//41
f 307//42 310//42 311//42 313//42
f 308//43 312//43 311//43 310//43
f 309//44 313//44 311//44 312//44
f 314//45 317//45 318//45 320//45
f 315//46 319//46 318//46 317//46
f 316//47 320//47 318//47 319//47
f 265//48 272//48 278//48 268//48
f 268//49 278//49 274//49 266//49
f 266//50 287//50 289//50 270//50
f 270//51 289//51 286//51 267//51
f 267//52 293//52 299//52 271//52
f 271//53 299//53 295//53 265//53
f 273//54 279//54 285//54 277//54
f 277//55 285//55 281//55 274//55
f 272//56 301//56 303//56 275//56
f 275//57 303//57 300//57 273//57
f 280//58 288//58 291//58 284//58
f 284//59 291//59 287//59 281//59
f 279//60 308//60 310//60 282//60
f 282//61 310//61 307//61 280//61
f 288//62 314//62 320//62 292//62
f 292//63 320//63 316//63 286//63
f 294//64 302//64 305//64 298//64
f 298//65 305//65 301//65 295//65
f 293//66 316//66 319//66 296//66
f 296//67 319//67 315//67 294//67
f 302//68 309//68 312//68 306//68
f 306//69 312//69 308//69 300//69
f 309//70 315//70 317//70 313//70
f 313//71 317//71 314//71 307//71
f 266//72 274//72 281//72 287//72
f 349//19 323//19 342//19 372//19
f 329//20 356//20 364//20 335//20
f 336//21 363//21 370//21 344//21
f 350//22 371//22 365//22 358//22
f 321//23 351//23 357//23 328//23
f 321//24 324//24 325//24 327//24
f 322//25 326//25 325//25 324//25
f 323//26 327//26 325//26 326//26
f 328//27 331//27 332//27 334//27
f 329//28 333//28 332//28 331//28
f 330//29 334//29 332//29 333//29
f 335//30 338//30 339//30 341//30
f 336//31 340//31 339//31 338//31
f 337//32 341//32 339//32 340//32
f 342//33 345//33 346//33 348//33
f 343//34 347//34 346//34 345//34
f 344//35 348//35 346//35 347//35
f 349//36 352//36 353//36 355//36
f 350//37 354//37 353//37 352//37
f 351//38 355//38 353//38 354//38
f 356//39 359//39 360//39 362//39
f 357//40 361//40 360//40 359//40
f 358//41 362//41 360//41 361//41
f 363//42 366//42 367//42 369//42
f 364//43 368//43 367//43 366//43
f 365//44 369//44 367//44 368//44
f 370//45 373//45 374//45 376//45
f 371//46 375//46 374//46 373//46
f 372//47 376//47 374//47 375//47
f 321//48 328//48 334//48 324//48
f 324//49 334//49 330//49 322//49
f 322//50 343//50 345//50 326//50
f 326//51 345//51 342//51 323//51
f 323//52 349//52 355//52 327//52
f 327//53 355//53 351//53 321//53
f 329//54 335//54 341//54 333//54
f 333//55 341//55 337//55 330//55
f 328//56 357//56 359//56 331//56
f 331//57 359//57 356//57 329//57
f 336//58 344//58 347//58 340//58
f 340//59 347//59 343//59 337//59
f 335//60 364//60 366//60 338//60
f 338//61 366//61 363//61 336//61
f 344//62 370//62 376//62 348//62
f 348//63 376//63 372//63 342//63
f 350//64 358//64 361//64 354//64
f 354//65 361//65 357//65 351//65
f 349//66 372//66 375//66 352//66
f 352//67 375//67 371//67 350//67
f 358//68 365//68 368//68 362//68
f 362//69 368//69 364//69 356//69
f 365//70 371//70 373//70 369//70
f 369//71 373//71 370//71 363//71
f 322//72 330//72 337//72 343//72
f 405//19 379//19 398//19 428//19
f 385//20 412//20 420//20 391//20
f 392//21 419//21 426//21 400//21
f 406//22 427//22 421//22 414//22
f 377//23 407//23 413//23 384//23
f 377//24 380//24 381//24 383//24
f 378//25 382//25 381//25 380//25
f 379//26 383//26 381//26 382//26
f 384//27 387//27 388//27 390//27
f 385//28 389//28 388//28 387//28
f 386//29 390//29 388//29 389//29
f 391//30 394//30 395//30 397//30
f 392//31 396//31 395//31 394//31
f 393//32 397//32 395//32 396//32
f 398//33 401//33 402//33 404//33
f 399//34 403//34 402//34 401//34
f 400//35 404//35 402//35 403//35
f 405//36 408//36 409//36 411//36
f 406//37 410//37 409//37 408//37
f 407//38 411//38 409//38 410//38
f 412//39 415//39 416//39 418//39
f 413//40 417//40 416//40 415//40
f 414//41 418//41 416//41 417//41
f 419//42 422//42 423//42 425//42
f 420//43 424//43 423//43 422//43
f 421//44 425//44 423//44 424//44
f 426//45 429//45 430//45 432//45
f 427//46 431//46 430//46 429//46
f 428//47 432//47 430//47 431//47
f 377//48 384//48 390//48 380//48
f 380//49 390//49 386//49 378//49
f 378//50 399//50 401//50 382//50
f 382//51 401//51 398//51 379//51
f 379//52 405//52 411//52 383//52
f 383//53 411//53 407//53 377//53
f 385//54 391//54 397//54 389//54
f 389//55 397//55 393//55 386//55
f 384//56 413//56 415//56 387//56
f 387//57 415//57 412//57 385//57
f 392//58 400//58 403//58 396//58
f 396//59 403//59 399//59 393//59
f 391//60 420//60 422//60 394//60
f 394//61 422//61 419//61 392//61
f 400//62 426//62 432//62 404//62
f 404//63 432//63 428//63 398//63
f 406//64 414//64 417//64 410//64
f 410//65 417//65 413//65 407//65
f 405//66 428//66 431//66 408//66
f 408//67 431//67 427//67 406//67
f 414//68 421//68 424//68 418//68
f 418//69 424//69 420//69 412//69
f 421//70 427//70 429//70 425//70
f 425//71 429//71 426//71 419//71
f 378//72 386//72 393//72 399//72
f 461//19 435//19 454//19 484//19
f 441//20 468//20 476//20 447//20
f 448//21 475//21 482//21 456//21
f 462//22 483//22 477//22 470//22
f 433//23 463//23 469//23 440//23
f 433//24 436//24 437//24 439//24
f 434//25 438//25 437//25 436//25
f 435//26 439//26 437//26 438//26
f 440//27 443//27 444//27 446//27
f 441//28 445//28 444//28 443//28
f 442//29 446//29 444//29 445//29
f 447//30 450//30 451//30 453//30
f 448//31 452//31 451//31 450//31
f 449//32 453//32 451//32 452//32
f 454//33 457//33 458//33 460//33
f 455//34 459//34 458//34 457//34
f 456//35 460//35 458//35 459//35
f 461//36 464//36 465//36 467//36
f 462//37 466//37 465//37 464//37
f 463//38 467//38 465//38 466//38
f 468//39 471//39 472//39 474//39
f 469//40 473//40 472//40 471//40
f 470//41 474//41 472//41 473//41
f 475//42 478//42 479//42 481//42
f 476//43 480//43 479//43 478//43
f 477//44 481//44 479//44 480//44
f 482//45 485//45 486//45 488//45
f 483//46 487//46 486//46 485//46
f 484//47 488//47 486//47 487//47
f 433//48 440//48 446//48 436//48
f 436//49 446//49 442//49 434//49
f 434//50 455//50 457//50 438//50
f 438//51 457//51 454//51 435//51
f 435//52 461//52 467//52 439//52
f 439//53 467//53 463//53 433//53
f 441//54 447//54 453//54 445//54
f 445//55 453//55 449//55 442//55
f 440//56 469//56 471//56 443//56
f 443//57 471//57 468//57 441//57
f 448//58 456//58 459//58 452//58
f 452//59 459//59 455//59 449//59
f 447//60 476//60 478//60 450//60
f 450//61 478//61 475//61 448//61
f 456//62 482//62 488//62 460//62
f 460//63 488//63 484//63 454//63
f 462//64 470//64 473//64 466//64
f 466//65 473//65 469//65 463//65
f 461//66 484//66 487//66 464//66
f 464//67 487//67 483//67 462//67
f 470//68 477//68 480//68 474//68
f 474//69 480//69 476//69 468//69
f 477//70 483//70 485//70 481//70
f 481//71 485//71 482//71 475//71
f 434//72 442//72 449//72 455//72
usemtl tree_barc
f 52//73 33//73 34//73 53//73
f 53//74 34//74 35//74 57//74
f 57//75 35//75 36//75 61//75
f 61//76 36//76 37//76 65//76
f 65//77 37//77 38//77 69//77
f 69//78 38//78 39//78 73//78
f 73//79 39//79 40//79 77//79
f 77//80 40//80 41//80 81//80
f 81//81 41//81 42//81 85//81
f 85//82 42//82 43//82 89//82
f 89//83 43//83 44//83 93//83
f 93//84 44//84 45//84 97//84
f 97//85 45//85 46//85 101//85
f 101//86 46//86 47//86 105//86
f 34//22 33//22 48//22 47//22 46//22 45//22 44//22 43//22 42//22 41//22 40//22 39//22 38//22 37//22 36//22 35//22
f 105//87 47//87 48//87 109//87
f 109//88 48//88 33//88 52//88
f 207//89 112//89 49//89 162//89
f 162//90 49//90 56//90 165//90
f 112//91 111//91 50//91 49//91
f 113//92 51//92 54//92 117//92
f 50//93 114//93 116//93 55//93
f 110//94 109//94 52//94 51//94
f 108//95 107//95 111//95 112//95
f 107//96 155//96 158//96 111//96
f 106//97 105//97 109//97 110//97
f 204//98 108//98 112//98 207//98
f 104//99 103//99 107//99 108//99
f 156//100 106//100 110//100 159//100
f 103//101 152//101 155//101 107//101
f 102//102 101//102 105//102 106//102
f 201//103 104//103 108//103 204//103
f 100//104 99//104 103//104 104//104
f 153//105 102//105 106//105 156//105
f 99//106 149//106 152//106 103//106
f 98//107 97//107 101//107 102//107
f 198//108 100//108 104//108 201//108
f 96//109 95//109 99//109 100//109
f 150//110 98//110 102//110 153//110
f 95//111 146//111 149//111 99//111
f 94//112 93//112 97//112 98//112
f 195//113 96//113 100//113 198//113
f 92//114 91//114 95//114 96//114
f 147//115 94//115 98//115 150//115
f 91//116 143//116 146//116 95//116
f 90//117 89//117 93//117 94//117
f 192//118 92//118 96//118 195//118
f 88//119 87//119 91//119 92//119
f 144//120 90//120 94//120 147//120
f 87//121 140//121 143//121 91//121
f 86//122 85//122 89//122 90//122
f 189//123 88//123 92//123 192//123
f 84//124 83//124 87//124 88//124
f 141//125 86//125 90//125 144//125
f 83//126 137//126 140//126 87//126
f 82//127 81//127 85//127 86//127
f 186//128 84//128 88//128 189//128
f 80//129 79//129 83//129 84//129
f 138//130 82//130 86//130 141//130
f 79//131 134//131 137//131 83//131
f 78//132 77//132 81//132 82//132
f 183//133 80//133 84//133 186//133
f 76//134 75//134 79//134 80//134
f 135//135 78//135 82//135 138//135
f 75//136 131//136 134//136 79//136
f 74//137 73//137 77//137 78//137
f 180//138 76//138 80//138 183//138
f 72//139 71//139 75//139 76//139
f 132//140 74//140 78//140 135//140
f 71//141 128//141 131//141 75//141
f 70//142 69//142 73//142 74//142
f 177//143 72//143 76//143 180//143
f 68//144 67//144 71//144 72//144
f 129//145 70//145 74//145 132//145
f 67//146 125//146 128//146 71//146
f 66//147 65//147 69//147 70//147
f 174//148 68//148 72//148 177//148
f 64//149 63//149 67//149 68//149
f 126//150 66//150 70//150 129//150
f 63//151 122//151 125//151 67//151
f 62//152 61//152 65//152 66//152
f 171//153 64//153 68//153 174//153
f 60//154 59//154 63//154 64//154
f 123//155 62//155 66//155 126//155
f 59//156 119//156 122//156 63//156
f 58//157 57//157 61//157 62//157
f 168//158 60//158 64//158 171//158
f 56//159 55//159 59//159 60//159
f 120//160 58//160 62//160 123//160
f 55//161 116//161 119//161 59//161
f 54//162 53//162 57//162 58//162
f 165//163 56//163 60//163 168//163
f 49//164 50//164 55//164 56//164
f 117//165 54//165 58//165 120//165
f 159//166 110//166 51//166 113//166
f 51//167 52//167 53//167 54//167
f 159//168 113//168 115//168 160//168
f 160//169 115//169 114//169 158//169
f 156//170 159//170 160//170 157//170
f 157//171 160//171 158//171 155//171
f 153//172 156//172 157//172 154//172
f 154//173 157//173 155//173 152//173
f 150//174 153//174 154//174 151//174
f 151//175 154//175 152//175 149//175
f 147//176 150//176 151//176 148//176
f 148//177 151//177 149//177 146//177
f 144//178 147//178 148//178 145//178
f 145//179 148//179 146//179 143//179
f 141//180 144//180 145//180 142//180
f 142//181 145//181 143//181 140//181
f 138//182 141//182 142//182 139//182
f 139//183 142//183 140//183 137//183
f 135//184 138//184 139//184 136//184
f 136//185 139//185 137//185 134//185
f 132//186 135//186 136//186 133//186
f 133//187 136//187 134//187 131//187
f 129//188 132//188 133//188 130//188
f 130//189 133//189 131//189 128//189
f 126//190 129//190 130//190 127//190
f 127//191 130//191 128//191 125//191
f 123//192 126//192 127//192 124//192
f 124//193 127//193 125//193 122//193
f 120//194 123//194 124//194 121//194
f 121//195 124//195 122//195 119//195
f 117//196 120//196 121//196 118//196
f 118//197 121//197 119//197 116//197
f 113//198 117//198 118//198 115//198
f 115//199 118//199 116//199 114//199
f 111//200 158//200 114//200 50//200
f 162//201 165//201 166//201 163//201
f 163//202 166//202 164//202 161//202
f 165//203 168//203 169//203 166//203
f 166//204 169//204 167//204 164//204
f 168//205 171//205 172//205 169//205
f 169//206 172//206 170//206 167//206
f 171//207 174//207 175//207 172//207
f 172//208 175//208 173//208 170//208
f 174//209 177//209 178//209 175//209
f 175//210 178//210 176//210 173//210
f 177//211 180//211 181//211 178//211
f 178//212 181//212 179//212 176//212
f 180//213 183//213 184//213 181//213
f 181//214 184//214 182//214 179//214
f 183//215 186//215 187//215 184//215
f 184//216 187//216 185//216 182//216
f 186//217 189//217 190//217 187//217
f 187//218 190//218 188//218 185//218
f 189//219 192//219 193//219 190//219
f 190//220 193//220 191//220 188//220
f 192//221 195//221 196//221 193//221
f 193//222 196//222 194//222 191//222
f 195//223 198//223 199//223 196//223
f 196//224 199//224 197//224 194//224
f 198//225 201//225 202//225 199//225
f 199//226 202//226 200//226 197//226
f 201//227 204//227 205//227 202//227
f 202//228 205//228 203//228 200//228
f 204//229 207//229 208//229 205//229
f 205//230 208//230 206//230 203//230
f 207//231 162//231 163//231 208//231
f 208//232 163//232 161//232 206//232
f 161//72 164//72 167//72 170//72 173//72 176//72 179//72 182//72 185//72 188//72 191//72 194//72 197//72 200//72 203//72 206//72
o Cylinder.001
v 0.809470 0.014702 0.358758
v 0.809470 0.180655 0.358758
v 0.765960 0.014702 0.344178
v 0.765960 0.180655 0.344178
v 0.862198 0.014702 0.201404
v 0.862198 0.180655 0.201404
v 0.818688 0.014702 0.186824
v 0.818688 0.180655 0.186824
v 0.811778 0.296960 0.315704
v 0.810075 0.306222 0.308487
v 0.811356 0.303509 0.312170
v 0.795766 0.306222 0.303692
v 0.790059 0.296960 0.308426
v 0.792525 0.303509 0.305860
v 0.818082 0.306222 0.237095
v 0.816379 0.296960 0.229879
v 0.816802 0.303509 0.233412
v 0.832391 0.306222 0.241890
v 0.838099 0.296960 0.237156
v 0.835632 0.303509 0.239722
v -0.082976 0.031908 0.881512
v -0.082976 0.197861 0.881512
v -0.082976 0.031908 0.835624
v -0.082976 0.197861 0.835624
v 0.082977 0.031908 0.881512
v 0.082977 0.197861 0.881512
v 0.082977 0.031908 0.835624
v 0.082977 0.197861 0.835624
v -0.041420 0.314166 0.870021
v -0.035118 0.323427 0.866113
v -0.038203 0.320715 0.868498
v -0.035118 0.323427 0.851023
v -0.041420 0.314166 0.847115
v -0.038203 0.320715 0.848639
v 0.035118 0.323427 0.851023
v 0.041420 0.314166 0.847115
v 0.038204 0.320715 0.848639
v 0.035118 0.323427 0.866114
v 0.041420 0.314166 0.870021
v 0.038204 0.320715 0.868498
v -0.862198 0.049114 0.201404
v -0.862198 0.215067 0.201404
v -0.818688 0.049114 0.186824
v -0.818688 0.215067 0.186824
v -0.809470 0.049114 0.358758
v -0.809470 0.215067 0.358758
v -0.765960 0.049114 0.344178
v -0.765960 0.215067 0.344178
v -0.838099 0.331372 0.237156
v -0.832391 0.340633 0.241890
v -0.835632 0.337920 0.239722
v -0.818082 0.340633 0.237095
v -0.816379 0.331372 0.229879
v -0.816802 0.337920 0.233412
v -0.795766 0.340633 0.303692
v -0.790059 0.331372 0.308426
v -0.792525 0.337920 0.305860
v -0.810075 0.340633 0.308487
v -0.811778 0.331372 0.315704
v -0.811355 0.337920 0.312170
v -0.464912 0.066319 -0.753529
v -0.464912 0.232272 -0.753529
v -0.437264 0.066319 -0.716905
v -0.437264 0.232272 -0.716905
v -0.597359 0.066319 -0.653537
v -0.597359 0.232272 -0.653537
v -0.569710 0.066319 -0.616914
v -0.569710 0.232272 -0.616914
v -0.491155 0.348577 -0.719319
v -0.493830 0.357839 -0.712403
v -0.492804 0.355126 -0.716165
v -0.484737 0.357839 -0.700359
v -0.477353 0.348577 -0.701037
v -0.480838 0.355126 -0.700315
v -0.540793 0.357839 -0.658040
v -0.543468 0.348577 -0.651124
v -0.541819 0.355126 -0.654278
v -0.549885 0.357839 -0.670084
v -0.557269 0.348577 -0.669405
v -0.553784 0.355126 -0.670127
v 0.566766 0.083525 -0.680239
v 0.566766 0.249478 -0.680239
v 0.540826 0.083525 -0.642386
v 0.540826 0.249478 -0.642386
v 0.429874 0.083525 -0.774052
v 0.429874 0.249478 -0.774052
v 0.403934 0.083525 -0.736200
v 0.403934 0.249478 -0.736200
v 0.525991 0.365783 -0.694252
v 0.518584 0.375044 -0.694591
v 0.522477 0.372332 -0.694813
v 0.510053 0.375044 -0.682143
v 0.513042 0.365783 -0.675357
v 0.511250 0.372332 -0.678432
v 0.452116 0.375044 -0.721848
v 0.444709 0.365783 -0.722187
v 0.448223 0.372332 -0.721625
v 0.460647 0.375044 -0.734296
v 0.457658 0.365783 -0.741082
v 0.459450 0.372332 -0.738007
vn -0.3177 0.0000 0.9482
vn -0.9482 0.0000 -0.3177
vn 0.3177 0.0000 -0.9482
vn 0.9482 0.0000 0.3177
vn 0.0000 -1.0000 0.0000
vn 0.9436 0.0983 0.3162
vn 0.0000 1.0000 -0.0000
vn -0.9436 0.0983 -0.3162
vn 0.2992 0.3365 -0.8929
vn -0.2098 0.7510 0.6261
vn -0.2852 0.4408 0.8511
vn -0.7122 0.6602 -0.2387
vn -0.9235 0.2266 -0.3095
vn 0.2098 0.7510 -0.6261
vn 0.2852 0.4408 -0.8511
vn 0.7122 0.6602 0.2387
vn 0.9235 0.2266 0.3095
vn -0.2992 0.3365 0.8929
vn -1.0000 0.0000 0.0000
vn 0.0000 0.0000 -1.0000
vn 1.0000 0.0000 -0.0000
vn 0.0000 0.0000 1.0000
vn 0.0000 0.0983 0.9952
vn -0.0000 0.0983 -0.9952
vn 0.9417 0.3365 0.0000
vn -0.6603 0.7510 -0.0000
vn -0.8976 0.4409 -0.0000
vn -0.0000 0.6602 -0.7511
vn -0.0000 0.2266 -0.9740
vn 0.6603 0.7510 -0.0000
vn 0.8976 0.4409 0.0000
vn 0.0000 0.6602 0.7511
vn -0.0000 0.2266 0.9740
vn -0.9417 0.3365 -0.0000
vn -0.3177 0.0000 -0.9482
vn 0.9482 0.0000 -0.3177
vn 0.3177 0.0000 0.9482
vn -0.9482 0.0000 0.3177
vn -0.9436 0.0983 0.3162
vn 0.9436 0.0983 -0.3162
vn 0.2992 0.3365 0.8929
vn -0.2098 0.7510 -0.6261
vn -0.2852 0.4408 -0.8511
vn 0.7122 0.6602 -0.2387
vn 0.9235 0.2266 -0.3095
vn 0.2098 0.7510 0.6261
vn 0.2852 0.4408 0.8511
vn -0.7122 0.6602 0.2386
vn -0.9235 0.2266 0.3095
vn -0.2992 0.3365 -0.8929
vn 0.7981 0.0000 -0.6025
vn 0.6025 0.0000 0.7981
vn -0.7981 0.0000 0.6025
vn -0.6025 0.0000 -0.7981
vn -0.5996 0.0983 -0.7942
vn 0.5996 0.0983 0.7942
vn -0.7516 0.3365 0.5674
vn 0.5270 0.7510 -0.3978
vn 0.7164 0.4408 -0.5408
vn 0.4526 0.6602 0.5995
vn 0.5869 0.2266 0.7773
vn -0.5270 0.7510 0.3978
vn -0.7164 0.4409 0.5408
vn -0.4526 0.6602 -0.5995
vn -0.5869 0.2266 -0.7773
vn 0.7516 0.3365 -0.5674
vn 0.8249 0.0000 0.5653
vn -0.5653 0.0000 0.8249
vn -0.8249 0.0000 -0.5653
vn 0.5653 0.0000 -0.8249
vn 0.5626 0.0983 -0.8209
vn -0.5626 0.0983 0.8209
vn -0.7768 0.3365 -0.5323
vn 0.5447 0.7510 0.3733
vn 0.7404 0.4409 0.5074
vn -0.4246 0.6602 0.6196
vn -0.5506 0.2266 0.8034
vn -0.5447 0.7510 -0.3733
vn -0.7404 0.4408 -0.5074
vn 0.4246 0.6602 -0.6196
vn 0.5506 0.2266 -0.8034
vn 0.7768 0.3365 0.5323
usemtl stone
s off
f 489//233 490//233 492//233 491//233
f 491//234 492//234 496//234 495//234
f 495//235 496//235 494//235 493//235
f 493//236 494//236 490//236 489//236
f 491//237 495//237 493//237 489//237
f 490//238 494//238 507//238 497//238
f 503//239 500//239 498//239 506//239
f 496//240 492//240 501//240 504//240
f 494//241 496//241 504//241 507//241
f 498//242 500//242 502//242 499//242
f 499//243 502//243 501//243 497//243
f 500//244 503//244 505//244 502//244
f 502//245 505//245 504//245 501//245
f 503//246 506//246 508//246 505//246
f 505//247 508//247 507//247 504//247
f 506//248 498//248 499//248 508//248
f 508//249 499//249 497//249 507//249
f 492//250 490//250 497//250 501//250
f 509//251 510//251 512//251 511//251
f 511//252 512//252 516//252 515//252
f 515//253 516//253 514//253 513//253
f 513//254 514//254 510//254 509//254
f 511//237 515//237 513//237 509//237
f 510//255 514//255 527//255 517//255
f 523//239 520//239 518//239 526//239
f 516//256 512//256 521//256 524//256
f 514//257 516//257 524//257 527//257
f 518//258 520//258 522//258 519//258
f 519//259 522//259 521//259 517//259
f 520//260 523//260 525//260 522//260
f 522//261 525//261 524//261 521//261
f 523//262 526//262 528//262 525//262
f 525//263 528//263 527//263 524//263
f 526//264 518//264 519//264 528//264
f 528//265 519//265 517//265 527//265
f 512//266 510//266 517//266 521//266
f 529//267 530//267 532//267 531//267
f 531//268 532//268 536//268 535//268
f 535//269 536//269 534//269 533//269
f 533//270 534//270 530//270 529//270
f 531//237 535//237 533//237 529//237
f 530//271 534//271 547//271 537//271
f 543//239 540//239 538//239 546//239
f 536//272 532//272 541//272 544//272
f 534//273 536//273 544//273 547//273
f 538//274 540//274 542//274 539//274
f 539//275 542//275 541//275 537//275
f 540//276 543//276 545//276 542//276
f 542//277 545//277 544//277 541//277
f 543//278 546//278 548//278 545//278
f 545//279 548//279 547//279 544//279
f 546//280 538//280 539//280 548//280
f 548//281 539//281 537//281 547//281
f 532//282 530//282 537//282 541//282
f 549//283 550//283 552//283 551//283
f 551//284 552//284 556//284 555//284
f 555//285 556//285 554//285 553//285
f 553//286 554//286 550//286 549//286
f 551//237 555//237 553//237 549//237
f 550//287 554//287 567//287 557//287
f 563//239 560//239 558//239 566//239
f 556//288 552//288 561//288 564//288
f 554//289 556//289 564//289 567//289
f 558//290 560//290 562//290 559//290
f 559//291 562//291 561//291 557//291
f 560//292 563//292 565//292 562//292
f 562//293 565//293 564//293 561//293
f 563//294 566//294 568//294 565//294
f 565//295 568//295 567//295 564//295
f 566//296 558//296 559//296 568//296
f 568//297 559//297 557//297 567//297
f 552//298 550//298 557//298 561//298
f 569//299 570//299 572//299 571//299
f 571//300 572//300 576//300 575//300
f 575//301 576//301 574//301 573//301
f 573//302 574//302 570//302 569//302
f 571//237 575//237 573//237 569//237
f 570//303 574//303 587//303 577//303
f 583//239 580//239 578//239 586//239
f 576//304 572//304 581//304 584//304
f 574//305 576//305 584//305 587//305
f 578//306 580//306 582//306 579//306
f 579//307 582//307 581//307 577//307
f 580//308 583//308 585//308 582//308
f 582//309 585//309 584//309 581//309
f 583//310 586//310 588//310 585//310
f 585//311 588//311 587//311 584//311
f 586//312 578//312 579//312 588//312
f 588//313 579//313 577//313 587//313
f 572//314 570//314 577//314 581//314
